<svg preserveAspectRatio="none" width="100%" height="100%" overflow="visible" style="display: block;" viewBox="0 0 22 24" fill="none" xmlns="http://www.w3.org/2000/svg">
<g id="Vector">
<path d="M6.84368 1.74872C6.53373 1.70049 6.52066 1.69483 6.66652 1.67236C6.94604 1.62924 7.60606 1.688 8.06088 1.79647C9.1227 2.04961 10.0889 2.69807 11.1202 3.84975L11.3942 4.15572L11.7862 4.09252C13.4375 3.82638 15.1174 4.03789 16.5224 4.68888C16.9089 4.86797 17.5184 5.22447 17.5945 5.31608C17.6187 5.34529 17.6633 5.53322 17.6935 5.73377C17.7978 6.4276 17.7455 6.95943 17.534 7.35664C17.4189 7.5728 17.4125 7.6413 17.4899 7.82629C17.5516 7.97391 17.7239 8.08317 17.8945 8.08293C18.2437 8.08246 18.6195 7.51636 18.7936 6.72869L18.8628 6.41581L18.9998 6.57148C19.7515 7.42554 20.3417 8.59027 20.4432 9.41932L20.4696 9.63548L20.3433 9.43897C20.1258 9.10083 19.9074 8.87064 19.6276 8.68498C19.1233 8.35033 18.5901 8.23644 17.178 8.16181C15.9026 8.0944 15.1808 7.98514 14.4651 7.75107C13.2473 7.35286 12.6334 6.82253 11.1869 4.91911C10.5444 4.07366 10.1473 3.60589 9.75229 3.22919C8.85468 2.37325 7.97269 1.92435 6.84368 1.74872Z" fill="var(--fill-0, #FF37C7)"/>
<path d="M17.8821 3.63639C17.9142 3.06986 17.9908 2.69619 18.1449 2.35494C18.2058 2.21986 18.2629 2.10931 18.2717 2.10931C18.2806 2.10931 18.2541 2.20901 18.2128 2.33084C18.1009 2.66203 18.0825 3.11502 18.1596 3.64205C18.2575 4.31076 18.3132 4.40725 19.0179 5.1296C19.3485 5.46841 19.7329 5.89573 19.8723 6.07919L20.1257 6.41278L19.8723 6.17438C19.5624 5.88284 18.8497 5.31428 18.6922 5.233C18.5866 5.17849 18.571 5.17943 18.5058 5.24444C18.4459 5.30433 18.4332 5.39433 18.4248 5.81981C18.4119 6.48293 18.3218 6.90857 18.1043 7.33415C17.9866 7.56435 17.9681 7.51522 18.0745 7.2554C18.1541 7.06141 18.1621 6.97613 18.1616 6.33418C18.1603 5.04435 18.0076 4.73426 17.1122 4.20308C16.8855 4.0685 16.5117 3.87444 16.2818 3.77179C16.0518 3.66913 15.8692 3.57972 15.8757 3.57304C15.9012 3.54773 16.7744 3.80334 17.1258 3.93893C17.6486 4.14063 17.7348 4.16676 17.7984 4.14243C17.8409 4.12613 17.8615 4.00181 17.8821 3.63639Z" fill="var(--fill-0, #FF37C7)"/>
<path d="M7.44574 5.84292C6.81652 4.97408 6.4272 3.64197 6.51148 2.64615L6.53754 2.33799L6.68077 2.36421C6.94974 2.41342 7.4135 2.58654 7.63065 2.71883C8.22658 3.08181 8.48457 3.55971 8.74704 4.78689C8.82393 5.14634 8.92479 5.55311 8.97121 5.69082C9.04593 5.91248 9.32829 6.43024 9.55784 6.76649C9.72319 7.00867 9.61336 7.12343 9.24786 7.09033C8.68965 7.03979 7.93352 6.51642 7.44574 5.84292Z" fill="var(--fill-0, #FF37C7)"/>
<path d="M17.119 12.3092C14.1784 11.1217 13.1426 10.091 13.1426 8.35191C13.1426 8.09598 13.1515 7.88657 13.1622 7.88657C13.1729 7.88657 13.2867 7.97103 13.415 8.07428C14.0113 8.55395 14.6791 8.75882 16.5275 9.0293C17.6153 9.18847 18.2275 9.31702 18.7922 9.50484C20.5869 10.1018 21.6973 11.3133 21.9622 12.9635C22.0391 13.4429 21.994 14.3421 21.8692 14.8161C21.7708 15.1903 21.4702 15.865 21.3905 15.8909C21.3684 15.898 21.3467 15.8131 21.3411 15.6975C21.3107 15.0779 20.9986 14.4746 20.4743 14.0227C19.8782 13.509 19.0773 13.1 17.119 12.3092Z" fill="var(--fill-0, #FF37C7)"/>
<path d="M15.0546 12.8025C15.0177 12.5826 14.9539 12.3018 14.9126 12.1785L14.8376 11.9542L14.9768 12.1112C15.1697 12.3283 15.3221 12.6061 15.4513 12.9761C15.5499 13.2585 15.561 13.3425 15.5603 13.8014C15.5595 14.2519 15.5472 14.3464 15.4562 14.6005C15.3126 15.0014 15.1344 15.2856 14.8355 15.5907C14.2983 16.139 13.6078 16.4426 12.6112 16.5685C12.438 16.5903 11.9331 16.6273 11.4893 16.6503C10.3706 16.7087 9.63434 16.8293 8.97278 17.0623C8.87767 17.0958 8.79275 17.1161 8.78413 17.1075C8.75736 17.0808 9.20777 16.8115 9.57981 16.6317C10.1044 16.3783 10.6266 16.24 11.7966 16.0446C12.3746 15.948 12.9715 15.831 13.123 15.7843C14.5543 15.3442 15.29 14.2083 15.0546 12.8025Z" fill="var(--fill-0, #FF37C7)"/>
<path d="M16.4026 15.2035C16.0118 14.3612 15.9221 13.5479 16.1362 12.7894C16.1591 12.7083 16.1959 12.642 16.2181 12.642C16.2402 12.642 16.3325 12.692 16.423 12.753C16.603 12.8746 16.964 13.0793 17.926 13.6054C19.1264 14.2618 19.8109 14.7701 20.2763 15.3508C20.684 15.8594 20.9361 16.4386 21.0575 17.1449C21.1263 17.545 21.086 18.5077 20.9837 18.9106C20.6609 20.1808 19.9108 21.1786 18.8409 21.7609C18.6841 21.8462 18.5434 21.9162 18.5282 21.9166C18.513 21.9169 18.5701 21.7712 18.6552 21.5929C19.0151 20.8383 19.056 20.1043 18.7839 19.2873C18.6173 18.7871 18.2776 18.1767 17.5917 17.1451C16.7943 15.9456 16.5988 15.6265 16.4026 15.2035Z" fill="var(--fill-0, #FF37C7)"/>
<path d="M5.35747 19.7485C6.44869 18.8244 7.80644 18.1678 9.04321 17.9663C9.57623 17.8795 10.4642 17.914 10.9577 18.0407C11.7489 18.2438 12.4566 18.6985 12.8247 19.2404C13.1844 19.77 13.3387 20.2316 13.4994 21.2584C13.5627 21.6635 13.6317 22.0703 13.6526 22.1624C13.7733 22.6945 14.008 23.1199 14.299 23.3336C14.7612 23.6728 15.557 23.6939 16.3398 23.3877C16.4726 23.3357 16.588 23.2997 16.5962 23.3078C16.6245 23.3361 16.2303 23.6008 15.9522 23.7401C15.578 23.9276 15.2805 24 14.8851 24C14.1681 24 13.5728 23.6342 13.0761 22.8883C12.9784 22.7415 12.7587 22.3018 12.5879 21.9113C12.0634 20.7116 11.8045 20.3462 11.1956 19.9462C10.6657 19.5982 9.98228 19.5358 9.46816 19.7886C8.79283 20.1207 8.60441 20.9863 9.0881 21.5348C9.28034 21.7528 9.63883 21.9409 9.93197 21.9775C10.4804 22.0459 10.9517 21.6275 10.9517 21.0721C10.9517 20.7116 10.8135 20.5058 10.4656 20.3483C9.9905 20.1334 9.47981 20.3847 9.48226 20.8323C9.48332 21.0231 9.56619 21.1431 9.75698 21.2296C9.87937 21.2852 9.88221 21.2895 9.78241 21.2688C9.34648 21.1781 9.24435 20.651 9.59485 20.3011C10.0157 19.881 10.8858 20.0664 11.1847 20.6398C11.3102 20.8807 11.3247 21.3603 11.2153 21.6499C10.9704 22.2982 10.2561 22.6391 9.53158 22.4536C9.03829 22.3273 8.83744 22.1905 8.24268 21.5761C7.20922 20.5084 6.80801 20.3016 5.3181 20.0682L5.03258 20.0235L5.35747 19.7485Z" fill="var(--fill-0, #FF37C7)"/>
<path fill-rule="evenodd" clip-rule="evenodd" d="M0.508283 0.638644C3.95959 4.83986 6.33669 6.57321 6.60085 6.93942C6.81896 7.2418 6.73687 7.51365 6.36322 7.7267C6.15543 7.84516 5.72824 7.96518 5.51435 7.96518C5.27242 7.96518 5.18937 7.87158 5.18937 7.87158C5.0491 7.73815 4.9701 7.76149 4.24977 6.4791C3.24972 4.92277 2.41281 3.63172 2.38998 3.61011C2.33719 3.56012 2.33809 3.56181 4.1478 6.80938C4.44019 7.48625 4.20596 7.73471 4.20596 7.83113C4.20596 8.02724 4.15262 8.13032 3.9114 8.40017C3.50928 8.85009 3.32953 9.35562 3.19977 10.4019C3.0543 11.5746 2.64526 12.4031 1.51167 13.8211C0.84811 14.6511 0.739532 14.8032 0.572096 15.1378C0.361197 15.559 0.303207 15.7949 0.279704 16.3269C0.254862 16.8893 0.303244 17.2527 0.474578 17.7905C0.624574 18.2612 0.781143 18.5721 1.18141 19.1939C1.52683 19.7305 1.72572 20.1293 1.72572 20.2852C1.72572 20.4094 1.74935 20.4095 2.2846 20.2883C3.56555 19.9982 4.60567 19.4879 5.19066 18.8627C5.55269 18.4756 5.63769 18.2619 5.64045 17.7315C5.64226 17.3846 5.63009 17.312 5.53659 17.1124C5.38438 16.7876 5.10731 16.5175 4.49663 16.0988C3.69645 15.5502 3.35469 15.1086 3.26028 14.5012C3.18285 14.0027 3.27268 13.6511 3.71534 12.7206C4.17352 11.7575 4.28706 11.3471 4.36387 10.3762C4.41347 9.74902 4.48217 9.50166 4.66185 9.30311C4.84924 9.09607 5.01794 9.02595 5.48172 8.96241C6.23779 8.8588 6.71923 8.66262 7.11496 8.29688C7.45827 7.9796 7.60192 7.67388 7.62397 7.21366L7.6407 6.86483L7.44885 6.6405C6.75411 5.82806 0.043019 0 0.000264434 0C-0.00886914 0 0.219749 0.28741 0.508283 0.638644ZM2.11571 16.9634C2.27279 16.6843 2.18933 16.3256 1.92659 16.1504C1.67832 15.9849 1.29267 16.0628 1.29267 16.2786C1.29267 16.3445 1.32896 16.3924 1.41077 16.4346C1.54853 16.5057 1.55852 16.5856 1.45014 16.749C1.34038 16.9144 1.34924 17.0599 1.47514 17.1588C1.67805 17.3182 1.96528 17.2305 2.11571 16.9634Z" fill="var(--fill-0, #FF37C7)"/>
<path fill-rule="evenodd" clip-rule="evenodd" d="M8.11785 9.14539C7.7629 9.25473 7.41787 9.63202 7.31106 10.0276C7.24591 10.269 7.28288 10.6923 7.38047 10.8231C7.53814 11.0342 7.69062 11.0899 8.10348 11.087C8.9118 11.0813 9.6145 10.7336 9.69619 10.299C9.76315 9.94266 9.45454 9.44887 9.02943 9.2321C8.81007 9.12028 8.34355 9.07591 8.11785 9.14539ZM9.06277 9.88646C9.18742 9.70882 9.1329 9.51683 8.92089 9.38698C8.51717 9.13973 7.90663 9.34433 7.90663 9.72685C7.90663 9.91726 8.22501 10.125 8.51685 10.125C8.7111 10.125 8.97691 10.0088 9.06277 9.88646Z" fill="var(--fill-0, #FF37C7)"/>
</g>
</svg>
